<?xml version="1.0" encoding="UTF-8"?>
<svg version="1.1" xmlns="http://www.w3.org/2000/svg" width="512" height="512">
<path d="M0 0 C0.81726563 0.30550781 1.63453125 0.61101562 2.4765625 0.92578125 C18.8196124 8.05965224 29.86318881 24.67276846 39.890625 38.66796875 C49.54361461 52.87211491 49.54361461 52.87211491 64.5 60.1875 C69.16884721 60.30949337 73.30315285 59.26005537 77.734375 57.921875 C78.47552551 57.70063461 79.21667603 57.47939423 79.98028564 57.25144958 C87.63986684 54.90239249 95.04657687 51.98014978 102.47021484 48.98083496 C113.17778145 44.667651 123.87860048 40.3880188 135 37.25 C135.76151367 37.03480713 136.52302734 36.81961426 137.30761719 36.59790039 C148.09716656 33.73230181 158.66120383 32.63402023 169.8125 32.6875 C171.04645508 32.69313965 172.28041016 32.6987793 173.55175781 32.70458984 C203.42552446 33.10253899 227.41362028 45.96835432 248.22583008 66.85693359 C275.90303728 95.55341471 283.55529912 131.49120389 284 170 C286.35283375 170.65104151 288.70708449 171.29592122 291.0625 171.9375 C291.71927734 172.11990234 292.37605469 172.30230469 293.05273438 172.49023438 C307.28013876 176.34494985 321.31901916 176.17253263 334.6875 169.375 C344.34231854 163.68907188 352.11893689 155.86649627 357.625 146.125 C359.24081886 143.62782539 360.17440782 142.88804326 363 142 C366.7271242 141.52419691 368.50745856 141.72636587 371.8125 143.5625 C374.74120878 146.82591835 375.07292275 148.62463508 375 153 C370.71800823 167.30304195 355.939622 179.34509374 343.41699219 186.36791992 C323.35953624 196.91971918 301.57564085 195.12936878 280.5703125 188.8046875 C279.72210938 188.53914062 278.87390625 188.27359375 278 188 C277.79503906 188.61488281 277.59007812 189.22976563 277.37890625 189.86328125 C276.25260417 193.2421875 275.12630208 196.62109375 274 200 C276.99687845 200.68349859 279.99644998 201.34670795 283 202 C284.70542969 202.37898438 284.70542969 202.37898438 286.4453125 202.765625 C309.61441134 207.69933707 331.54321385 206.7285231 352.42578125 194.6796875 C357.5050973 191.36541451 362.463224 187.66241821 366.65625 183.26171875 C368 182 368 182 370 182 C370.26296875 181.41476562 370.5259375 180.82953125 370.796875 180.2265625 C372.05390368 177.90024319 373.43839018 176.29269508 375.25 174.375 C386.47875587 161.70188134 392.70610666 144.61288535 391.84375 127.64453125 C389.83507771 101.35687899 376.57153344 79.52599647 357.01953125 62.3515625 C348.30506037 55.56487237 336.36348779 47.06743088 325 46.625 C321.88854054 46.70216571 321.88854054 46.70216571 320 49 C319.41654524 51.95746492 319.41654524 51.95746492 320 55 C323.28303724 57.3387732 326.94103165 58.96955779 330.56982422 60.70068359 C352.78183348 71.36603658 367.98240484 87.80970563 377.0703125 110.6953125 C379.28340009 117.37754784 381.7776741 126.16282541 378.71875 132.765625 C376.2252105 136.00722635 373.97003331 136.38396035 370 137 C366.97379842 136.31222691 365.53206486 135.57585075 363.43359375 133.3046875 C361.65333081 130.4426844 361.32703303 128.0770557 360.8125 124.75 C357.20351467 106.94567236 346.78360956 93.58665668 332.53125 82.671875 C328.27131226 79.85821242 323.69929476 77.95469241 319 76 C310.92222784 72.45590623 306.66857587 69.60099287 302.1875 61.875 C299.90668277 55.90268669 299.95737171 49.21699841 301.9140625 43.1796875 C305.16102622 36.16205623 309.48524959 31.32246022 316.91015625 28.51171875 C331.40655526 24.9621332 345.14201696 32.40592294 357.25390625 39.62890625 C372.32464153 48.96995792 385.92256071 62.77911674 395 78 C395.38526855 78.64308105 395.77053711 79.28616211 396.16748047 79.94873047 C408.81959361 101.47015457 414.56955104 127.41898608 408.5 152.125 C407.7400542 154.44203754 406.90298903 156.73487498 406 159 C405.5973291 160.01513672 405.5973291 160.01513672 405.18652344 161.05078125 C395.03443834 186.00939577 374.73842124 206.55267142 349.92724609 217.24169922 C323.48414181 227.64609267 294.54000201 226.26849518 268 217 C264.53784427 225.09889059 261.37909736 233.26134304 258.4375 241.5625 C257.31981448 244.69549413 256.20185017 247.82826537 255.07373047 250.95751953 C254.3563716 252.99019944 253.66788702 255.0332949 253.00830078 257.08544922 C252.68716309 258.05627441 252.36602539 259.02709961 252.03515625 260.02734375 C251.62535522 261.32079712 251.62535522 261.32079712 251.20727539 262.64038086 C249.50942588 265.95882686 248.26195634 267.07287037 245 269 C240.9196683 269.60823228 236.8647602 269.5460188 232.74584961 269.51757812 C230.88170662 269.52809204 230.88170662 269.52809204 228.97990417 269.53881836 C225.57887036 269.55339324 222.17881164 269.54999789 218.77783275 269.53730202 C215.21626032 269.52716096 211.654729 269.53657054 208.09315491 269.54284668 C202.11370376 269.55011896 196.1344504 269.54054557 190.1550293 269.52148438 C183.24353449 269.49970626 176.3325115 269.50677512 169.42102808 269.52879 C163.48371784 269.54694424 157.54654959 269.54950258 151.60922056 269.53903532 C148.06445904 269.53280171 144.51991929 269.53196105 140.97517204 269.54518127 C137.02484679 269.55888581 133.07504988 269.53988956 129.12475586 269.51757812 C127.95009766 269.52567505 126.77543945 269.53377197 125.56518555 269.54211426 C124.48990097 269.53083496 123.41461639 269.51955566 122.30674744 269.50793457 C121.37301269 269.50642647 120.43927794 269.50491837 119.47724819 269.50336456 C116.25096746 268.8478003 115.06832617 267.50142215 113 265 C110.48167711 259.96335423 111.72786641 253.1890786 113.125 247.9375 C116.44510382 238.17608878 122.02406927 232.01235586 131 227 C137.11974356 224.16427556 143.31689481 223.40461388 150 223 C149.73445312 222.2471875 149.46890625 221.494375 149.1953125 220.71875 C143.63252393 203.98977999 143.23773756 188.33812943 146 171 C133.23419686 168.98693104 121.09436686 168.60375543 110 176 C105.97964268 176.44670637 103.70378189 176.38249016 100.125 174.4375 C97.30421431 171.20189288 96.9262914 169.27509903 97 165 C98.96001852 159.66439402 102.14703256 158.18475211 107.1875 155.75 C123.03930712 149.05155938 139.82623815 148.97518405 156 155 C166.08217415 159.26464378 173.33818225 165.42885465 181 173 C181.64453125 173.57234375 182.2890625 174.1446875 182.953125 174.734375 C198.06558671 188.43445711 213.14111165 216.80007992 215 237 C213.96214879 241.05705471 212.55674587 242.85531769 209 245 C205.72265625 245.625 205.72265625 245.625 202.0625 246 C196.75092418 246.54535966 194.78654311 247.12807413 190 250 C204.85 250 219.7 250 235 250 C237.784375 242.20375 237.784375 242.20375 240.625 234.25 C244.26934807 224.08992809 247.97231781 213.96064271 251.91015625 203.91015625 C252.22772888 203.09958771 252.54530151 202.28901917 252.87249756 201.45388794 C254.404424 197.55388927 255.94811077 193.65889382 257.50439453 189.76855469 C267.71262204 164.08790276 266.75914307 138.51231737 255.8125 113 C244.07097544 86.87328954 225.62848922 66.36223158 198.6875 55.6875 C164.91214308 44.42904769 133.10137756 56.82534121 101.6953125 69.54296875 C68.51063157 82.95336378 68.51063157 82.95336378 52.1875 76.3125 C38.52639312 69.34508665 29.7543785 57.59380012 21.109375 45.35546875 C17.60397718 40.40232879 13.88052093 35.66600402 10 31 C10 33.73132433 10.30634637 36.17823558 10.6875 38.875 C11.05433233 42.36500199 11.10093624 43.7644821 9.6875 47.0625 C7.12174518 50.00836664 6.15801893 49.98725654 2.125 50.3125 C-0.69837107 50.2461278 -1.83280361 50.09941407 -4.3125 48.625 C-6.82752582 44.71273761 -7.87084911 40.48238687 -9 36 C-9.99 36.495 -9.99 36.495 -11 37 C-18.24087591 37.58394161 -18.24087591 37.58394161 -21.4375 35.125 C-24.04191134 31.58300058 -24.43241556 29.41063875 -24 25 C-21.81742894 20.91954106 -19.49209874 19.61712068 -15.25 18.1875 C-13.83801142 17.77529043 -12.42261484 17.37389236 -11 17 C-12.78711531 15.21288469 -15.2632626 15.70103157 -17.6875 15.625 C-32.88198509 15.8554689 -44.93369744 24.17703207 -57.63134766 31.62744141 C-64.81382986 35.78946109 -71.79272121 39.42167716 -80 41 C-68.58872975 56.77440299 -45.97590108 64.44724724 -28.49609375 71.23828125 C-27.73280762 71.54072754 -26.96952148 71.84317383 -26.18310547 72.15478516 C-24.78724646 72.69520832 -23.38027721 73.20825654 -21.96142578 73.68505859 C-18.79111542 74.82544008 -17.16879982 75.75848641 -15.22265625 78.54296875 C-13.62184787 83.06921608 -12.53293109 87.64246263 -11.4375 92.3125 C-4.69505847 119.29956552 7.12980039 146.40296197 25.2734375 167.6640625 C34.9251794 179.09462373 41.03101081 190.63450874 45 205 C45.36931641 206.29550781 45.36931641 206.29550781 45.74609375 207.6171875 C47.25101419 214.11429228 47.23227347 220.73665831 47.3125 227.375 C47.33030518 228.33929932 47.34811035 229.30359863 47.36645508 230.29711914 C47.3563269 239.19666793 47.3563269 239.19666793 44 243 C40.49111711 245.34168692 36.63014431 245.68793684 32.53515625 246.33984375 C29.43393299 247.02025969 29.43393299 247.02025969 25 250 C35.23 250.33 45.46 250.66 56 251 C56.556875 247.473125 56.556875 247.473125 57.125 243.875 C60.9192419 221.89351866 67.27545183 195.487181 82 178 C85.81419227 175.6272752 87.18747225 174.87605509 91.6875 175.5625 C96.45159236 177.62993631 96.45159236 177.62993631 98 181 C98.51870903 186.72654766 97.41392812 189.7423275 94.375 194.5625 C83.2795058 212.95366162 78.19777045 233.04656808 74.64819336 254.06323242 C74.4600708 255.16642822 74.27194824 256.26962402 74.078125 257.40625 C73.91731445 258.38916016 73.75650391 259.37207031 73.59082031 260.38476562 C72.61016752 264.72557254 71.75647463 266.49568358 68 269 C65.09183172 269.20528081 62.27863811 269.29368963 59.36938477 269.29052734 C58.48779694 269.29724457 57.60620911 269.30396179 56.69790649 269.31088257 C53.77901601 269.32990547 50.86035489 269.3337888 47.94140625 269.3359375 C45.915033 269.342362 43.8886607 269.34909009 41.86228943 269.35610962 C37.61284229 269.36809281 33.36347652 269.37178933 29.11401367 269.37060547 C23.66508408 269.37040212 18.21667512 269.39771621 12.767869 269.43214989 C8.58230689 269.45437066 4.39687109 269.45844451 0.21125603 269.45738602 C-1.79782978 269.45974879 -3.80691872 269.46861021 -5.81594658 269.48405075 C-8.62433383 269.50361501 -11.43158526 269.49791067 -14.23999023 269.48583984 C-15.0718132 269.49707886 -15.90363617 269.50831787 -16.76066589 269.51989746 C-20.41681518 269.47990098 -22.5374625 269.35464891 -25.48500061 267.09463501 C-28.60169909 262.78549417 -28.41966293 259.18640031 -28 254 C-26.038003 242.64201739 -19.1642912 233.71394596 -10 227 C-0.94013304 221 -0.94013304 221 2 221 C1.69191406 220.15566406 1.38382812 219.31132812 1.06640625 218.44140625 C-0.0275278 214.91116486 -0.59620104 211.60127752 -1.0625 207.9375 C-1.21847656 206.75027344 -1.37445313 205.56304687 -1.53515625 204.33984375 C-2.42578658 196.43850197 -3.10751161 188.58919399 -2.89453125 180.6328125 C-2.60004912 165.58901512 -5.13876881 155.73690678 -12.71875 142.828125 C-20.97044835 128.71134363 -31 106.76976053 -31 90 C-31.76957031 89.814375 -31.76957031 89.814375 -32.5546875 89.625 C-58.08287257 82.74872119 -84.48441427 67.7503513 -101 47 C-102.857304 43.285392 -102.44282906 39.05406882 -102 35 C-99.61256873 30.04148889 -96.66515955 27.78030243 -92 25 C-89.64820449 24.23688852 -87.26920706 23.55479556 -84.875 22.9375 C-75.26739623 20.21104841 -67.04093472 15.29848362 -58.42333984 10.36474609 C-40.05728132 0.02157995 -20.95320063 -7.89774485 0 0 Z M163 182 C158.6405536 195.0783392 164.26269406 211.14107097 170 223 C171.07314453 224.58941406 171.07314453 224.58941406 172.16796875 226.2109375 C174.49717984 229.75690066 174.54026329 231.83225464 174 236 C172.875 238.375 172.875 238.375 171 240 C166.02575475 241.18109933 161.25124214 241.00387797 156.1875 240.875 C148.06207453 240.77993703 141.88863505 241.40757663 135 246 C132.7763932 247.9254644 132.7763932 247.9254644 132 251 C143.88 251 155.76 251 168 251 C170.475 246.05 170.475 246.05 173 241 C177.49897536 235.73704769 181.64487819 232.64575155 188 230 C189.485 229.38125 189.485 229.38125 191 228.75 C191.66 228.5025 192.32 228.255 193 228 C191.14221263 221.90762852 188.8840292 216.29944788 185.875 210.6875 C185.48610596 209.95692383 185.09721191 209.22634766 184.6965332 208.47363281 C181.06082795 201.81389085 176.78571646 195.89292811 172 190 C171.31035156 189.10410156 170.62070312 188.20820313 169.91015625 187.28515625 C167.84007737 184.80868151 165.83774958 183.49770117 163 182 Z M15 185 C16.05904778 200.85520661 16.05904778 200.85520661 19.26953125 216.37109375 C20.51307244 220.84651205 21.23409246 225.4225761 22 230 C24.31 229.34 26.62 228.68 29 228 C30.03440333 214.43782296 26.30664806 200.47143746 19 189 C17.70881511 187.62581037 16.38601666 186.27848088 15 185 Z M-4.625 246.25 C-7.21787329 248.64667259 -7.21787329 248.64667259 -7 251 C-3.49468251 251.62347544 -0.47679897 251.86141586 3 251 C5.75964915 248.01689748 7.3469613 244.68582953 9 241 C9.66308004 239.66487938 10.32836288 238.33083651 11 237 C5.47853957 237 -0.80807221 242.54264909 -4.625 246.25 Z " fill="#000000" transform="translate(102,123)"/>
<path d="M0 0 C2.82741495 1.72786469 3.34358138 2.90801857 5 6 C5.87691794 10.0527829 5.40146254 13.17962003 3.5625 16.9375 C-0.07416016 19.86456793 -3.39025359 20.29634084 -8 20 C-11.670261 18.43818681 -12.7727373 17.34089404 -15 14 C-15.82418418 9.36721733 -15.59554955 5.97273093 -13.125 1.9375 C-8.73384833 -0.78501403 -5.03212922 -1.14666551 0 0 Z " fill="#000000" transform="translate(64,151)"/>
</svg>
